<svg viewBox="0 0 540 160" width="100%" height="100%" xmlns="http://www.w3.org/2000/svg">
  <defs>
    <marker id="arrowY" viewBox="0 0 10 10" refX="5" refY="5" markerWidth="6" markerHeight="6" orient="auto-start-reverse">
      <path d="M 0 1.5 L 10 5 L 0 8.5 z" fill="#0284c7"/>
    </marker>
    <marker id="arrowAmb" viewBox="0 0 10 10" refX="5" refY="5" markerWidth="6" markerHeight="6" orient="auto-start-reverse">
      <path d="M 0 1.5 L 10 5 L 0 8.5 z" fill="#b45309"/>
    </marker>
  </defs>
  <path d="M 70 55 L 180 55 L 360 18 L 372 48 L 225 80 L 372 112 L 360 142 L 180 105 L 70 105 Z" fill="#f0f9ff" stroke="#0284c7" stroke-width="2.5" stroke-linejoin="round"/>
  <line x1="180" y1="55" x2="180" y2="105" stroke="#93c5fd" stroke-width="1.5" stroke-dasharray="4,3"/>
  <ellipse cx="70" cy="80" rx="12" ry="25" fill="#e0f2fe" stroke="#0284c7" stroke-width="2.5"/>
  <line x1="360" y1="18" x2="372" y2="48" stroke="#0284c7" stroke-width="2.5"/>
  <line x1="372" y1="112" x2="360" y2="142" stroke="#0284c7" stroke-width="2.5"/>
  
  <line x1="42" y1="55" x2="42" y2="105" stroke="#b45309" stroke-width="2" marker-start="url(#arrowAmb)" marker-end="url(#arrowAmb)"/>
  <line x1="32" y1="55" x2="58" y2="55" stroke="#94a3b8" stroke-width="1"/>
  <line x1="32" y1="105" x2="58" y2="105" stroke="#94a3b8" stroke-width="1"/>
  <text x="38" y="44" fill="#b45309" font-size="11" font-weight="800" text-anchor="middle" font-family="sans-serif">Ø A (80–1000)</text>

  <line x1="70" y1="124" x2="180" y2="124" stroke="#0284c7" stroke-width="1.8" marker-start="url(#arrowY)" marker-end="url(#arrowY)"/>
  <line x1="70" y1="105" x2="70" y2="132" stroke="#94a3b8" stroke-width="1"/>
  <line x1="180" y1="105" x2="180" y2="132" stroke="#94a3b8" stroke-width="1"/>
  <text x="125" y="140" fill="#0369a1" font-size="12" font-weight="700" text-anchor="middle" font-family="sans-serif">L1</text>

  <line x1="384" y1="14" x2="396" y2="44" stroke="#0284c7" stroke-width="1.8" marker-start="url(#arrowY)" marker-end="url(#arrowY)"/>
  <text x="424" y="32" fill="#0369a1" font-size="12" font-weight="700" text-anchor="middle" font-family="sans-serif">Ø B</text>

  <line x1="205" y1="42" x2="340" y2="10" stroke="#0284c7" stroke-width="1.8" marker-start="url(#arrowY)" marker-end="url(#arrowY)"/>
  <text x="272" y="18" fill="#0369a1" font-size="12" font-weight="700" text-anchor="middle" font-family="sans-serif">L2</text>

  <line x1="396" y1="116" x2="384" y2="146" stroke="#0284c7" stroke-width="1.8" marker-start="url(#arrowY)" marker-end="url(#arrowY)"/>
  <text x="424" y="136" fill="#0369a1" font-size="12" font-weight="700" text-anchor="middle" font-family="sans-serif">Ø C</text>

  <path d="M 245 70 A 25 25 0 0 1 245 90" fill="none" stroke="#7c3aed" stroke-width="1.8"/>
  <text x="282" y="84" fill="#7c3aed" font-size="11" font-weight="700" text-anchor="middle" font-family="sans-serif">Angle D (°)</text>

  <path d="M 120 55 L 140 28 L 195 28" fill="none" stroke="#475569" stroke-width="1.2"/>
  <circle cx="120" cy="55" r="2.5" fill="#475569"/>
  <text x="198" y="32" fill="#475569" font-size="11" font-weight="600" font-family="sans-serif">Thickness</text>
</svg>
